PathFileType	4	(X/Y/Z)	pose_F01_0-89.trc
DataRate	CameraRate	NumFrames	NumMarkers	Units	OrigDataRate	OrigDataStartFrame	OrigNumFrames
30	30	11	21	m	30	76	89
Frame#	Time	CHip			RHip			RKnee			RAnkle			RBigToe			RSmallToe			RHeel			LHip			LKnee			LAnkle			LBigToe			LSmallToe			LHeel			Neck			Nose			RShoulder			RElbow			RWrist			LShoulder			LElbow			LWrist			
		X1	Y1	Z1	X2	Y2	Z2	X3	Y3	Z3	X4	Y4	Z4	X5	Y5	Z5	X6	Y6	Z6	X7	Y7	Z7	X8	Y8	Z8	X9	Y9	Z9	X10	Y10	Z10	X11	Y11	Z11	X12	Y12	Z12	X13	Y13	Z13	X14	Y14	Z14	X15	Y15	Z15	X16	Y16	Z16	X17	Y17	Z17	X18	Y18	Z18	X19	Y19	Z19	X20	Y20	Z20	X21	Y21	Z21	
76	2.533333333333333	-0.25807300162727237	1.8281197334530033	-0.5091068599216158	-0.2762496505358839	1.8266376450677562	-0.4460108583406047	-0.24607690018723224	1.7173037171630696	-0.4052565097475197													-0.2420766685364335	1.8287852318286881	-0.5661887010437727	-0.2233392499016656	1.7155138990527528	-0.4712341201600585	-0.23374462180958266	1.624813836111612	-0.4690228441007768	-0.23835198179638853	1.587645000703577	-0.5101649786184993	-0.23807523367393768	1.5418572427586876	-0.5902069086245111				-0.25024489469769534	1.9863018917291353	-0.5166231823882572	-0.25933427522102837	2.061275518037274	-0.5711273205656934	-0.2772770760383222	1.9874736795882224	-0.4266101825869036	-0.29078865394612824	1.8990495487964925	-0.39974548929293346	-0.2993367366281897	1.8223021276322222	-0.3996179473573369	-0.22448275769720402	1.988712033729322	-0.6036433521288355	-0.2198252745176444	1.9067750186446613	-0.6287164903048242	-0.219840164140191	1.8349788068388724	-0.6518366761061802
77	2.566666666666667	-0.2576749685930826	1.827396522236597	-0.5079132917094427	-0.27552691556083936	1.825599112354061	-0.4436445064797007	-0.24607690018723224	1.7173037171630696	-0.4052565097475197													-0.24187804325490253	1.8294157837280403	-0.5645496419282814	-0.2233392499016656	1.7155138990527528	-0.4712341201600585	-0.23374462180958266	1.624813836111612	-0.4690228441007768	-0.23835198179638853	1.587645000703577	-0.5101649786184993	-0.23807523367393768	1.5418572427586876	-0.5902069086245111				-0.24940738968883455	1.9872820260623296	-0.5138891514823728	-0.2593589951412573	2.0603859053431375	-0.5712200830432573	-0.277427132129311	1.9890032739679875	-0.42704395273309276	-0.292051217163956	1.8979468472230345	-0.4028664215711976	-0.2993208922281927	1.8231095755264568	-0.39969743119560364	-0.22459073510195146	1.9877740587056285	-0.603543314913109	-0.21999463185946327	1.9058829777069184	-0.6285100588822609	-0.223310970959272	1.8357450861826143	-0.6440949198895815
78	2.6	-0.2588834351483242	1.8272666086610918	-0.51098841399895	-0.27498532713197404	1.8252083067293634	-0.4489783907172541	-0.24607690018723224	1.7173037171630696	-0.4052565097475197													-0.24288976845827695	1.8277652429840112	-0.5674156615460418	-0.2233392499016656	1.7155138990527528	-0.4712341201600585	-0.23374462180958266	1.624813836111612	-0.4690228441007768	-0.23835198179638853	1.587645000703577	-0.5101649786184993	-0.23807523367393768	1.5418572427586876	-0.5902069086245111				-0.24939409847153782	1.9870917301421736	-0.5138136994903075	-0.2593255342360762	2.0591852515055598	-0.5707809627989736	-0.2763287169318767	1.98507045697371	-0.4229270100476571	-0.29083221573793255	1.8963667831998536	-0.39934057117738436	-0.2964062327241247	1.8209002852769667	-0.398399327829075	-0.22661934820175178	1.9888864767164096	-0.601737709723661	-0.21909322737242481	1.9073606171440034	-0.6252403864724568	-0.22329828991808015	1.8384353965909563	-0.635657871443737
79	2.6333333333333333	-0.2578297555956115	1.8267487576186128	-0.5076996549901721	-0.27248050467179175	1.8245669521842132	-0.44234994540125044	-0.24607690018723224	1.7173037171630696	-0.4052565097475197													-0.24388054184652613	1.8267236648057277	-0.5621071685622289	-0.2233392499016656	1.7155138990527528	-0.4712341201600585	-0.23374462180958266	1.624813836111612	-0.4690228441007768	-0.23835198179638853	1.587645000703577	-0.5101649786184993	-0.23807523367393768	1.5418572427586876	-0.5902069086245111				-0.24938248358704285	1.987122428574518	-0.5138246971578879	-0.25929566872083876	2.059305709706928	-0.5707821333139446	-0.27738471673899456	1.985258454497172	-0.4260976890598955	-0.2890607320715288	1.8979490813623507	-0.4016567506000859	-0.29444513285361185	1.8226705078521583	-0.4007808987281022	-0.22456236414604971	1.9876713221461966	-0.6034473505353561	-0.2183678064263841	1.9058246709105642	-0.6220144897939571	-0.22495202249693957	1.8366457487502739	-0.6298122652543655
80	2.6666666666666665	-0.2580004176318073	1.8259057761537836	-0.5075235144208993	-0.27370965499105826	1.8238497311944704	-0.44536113189533216	-0.24607690018723224	1.7173037171630696	-0.4052565097475197													-0.24206577093333867	1.825972604817056	-0.5640723326986411	-0.2233392499016656	1.7155138990527528	-0.4712341201600585	-0.23374462180958266	1.624813836111612	-0.4690228441007768	-0.23835198179638853	1.587645000703577	-0.5101649786184993	-0.23807523367393768	1.5418572427586876	-0.5902069086245111				-0.24935622796027201	1.9873990899416845	-0.5138369358149072	-0.2593280558701419	2.059265458752205	-0.5707357103933821	-0.2775285614316621	1.9878345414594198	-0.42702954986935693	-0.2908338888950601	1.8962517251610467	-0.3993445237553019	-0.2973516300049597	1.820216990952669	-0.4014912134675257	-0.22454816785264722	1.9876418979011206	-0.6034283673528715	-0.21899524881687105	1.9085858452072018	-0.6253930208804234	-0.22351556657770105	1.8373080533988801	-0.635491741007382
81	2.7	-0.2588021122887365	1.830448150108743	-0.511368971373972	-0.2746192631276324	1.8282382829333328	-0.44937752256495045	-0.24607690018723224	1.7173037171630696	-0.4052565097475197													-0.2407874252342719	1.8305832512591254	-0.5699760252659055	-0.2233392499016656	1.7155138990527528	-0.4712341201600585	-0.23374462180958266	1.624813836111612	-0.4690228441007768	-0.23835198179638853	1.587645000703577	-0.5101649786184993	-0.23807523367393768	1.5418572427586876	-0.5902069086245111				-0.2493524260031175	1.9871322857573461	-0.5138277626373311	-0.259307782236606	2.059311206384231	-0.5707304738929462	-0.2762122717964399	1.987545393468852	-0.42336185298632534	-0.289193044005946	1.8997440318046277	-0.4019912210844372	-0.29620840021367045	1.8234340054976077	-0.3988682710104425	-0.2244569773909548	1.9889642065483835	-0.603476092947166	-0.21999584197010585	1.906812894822017	-0.6283548895682783	-0.22511509106032895	1.836854408434967	-0.6418773406645072
82	2.7333333333333334	-0.2585041983073394	1.8239182892008423	-0.510666738272823	-0.27338967225981625	1.823149542771758	-0.44557254257252016	-0.24607690018723224	1.7173037171630696	-0.4052565097475197													-0.24251896279443474	1.8273467435830526	-0.5674743177782912	-0.2233392499016656	1.7155138990527528	-0.4712341201600585	-0.23374462180958266	1.624813836111612	-0.4690228441007768	-0.23835198179638853	1.587645000703577	-0.5101649786184993	-0.23807523367393768	1.5418572427586876	-0.5902069086245111				-0.24935096327660652	1.9874326366321933	-0.513933898297886	-0.2593014756395552	2.059375957403364	-0.5707047456463683	-0.27622907461990914	1.9875110477592512	-0.4234094337593244	-0.28897252091740755	1.8979212699687453	-0.40171303378084716	-0.2944820923458472	1.8201202143225501	-0.40051186890107016	-0.2246335968735746	1.9889138351984215	-0.6040066970345198	-0.21981636457437198	1.9086104798480668	-0.6285049365911708	-0.22132283016840776	1.838746963077107	-0.6378566452216824
83	2.7666666666666666	-0.25841172386787065	1.826155186595233	-0.5110347699868668	-0.2733158519138422	1.825669420355554	-0.4458824180753527	-0.24607690018723224	1.7173037171630696	-0.4052565097475197													-0.24242071438514093	1.8265869393204595	-0.5676035166704066	-0.2233392499016656	1.7155138990527528	-0.4712341201600585	-0.23374462180958266	1.624813836111612	-0.4690228441007768	-0.23835198179638853	1.587645000703577	-0.5101649786184993	-0.23807523367393768	1.5418572427586876	-0.5902069086245111				-0.2501826256691401	1.9863655954192643	-0.5166355799284194	-0.25932685026129104	2.0593158874727315	-0.5706915453084876	-0.27444502227004913	1.986329179385281	-0.425504880563856	-0.2857974170068444	1.8975800631410584	-0.4003534664685847	-0.29702404531527604	1.8222609798226501	-0.4019190577251201	-0.22543101332509466	1.9875447864123903	-0.6066775320215627	-0.21999863776141151	1.9057538876563296	-0.6285718342956743	-0.21954731812630024	1.8327375012165317	-0.6394742544517615
84	2.8	-0.2585655428823824	1.8281333183633233	-0.5111946483424931	-0.2744852916321078	1.8274767654342978	-0.4492887803974417	-0.24607690018723224	1.7173037171630696	-0.4052565097475197													-0.24259184530206696	1.8288283060162658	-0.5677013537412899	-0.2233392499016656	1.7155138990527528	-0.4712341201600585	-0.23374462180958266	1.624813836111612	-0.4690228441007768	-0.23835198179638853	1.587645000703577	-0.5101649786184993	-0.23807523367393768	1.5418572427586876	-0.5902069086245111				-0.250253282206552	1.9876982322711094	-0.5171351784549973	-0.25935980221705957	2.0592513316810934	-0.5706802825709759	-0.27433484890820503	1.9874284024276976	-0.42560235948128056	-0.28480086789360337	1.8988716249247306	-0.3974377236959333	-0.2941651981742081	1.823239746456326	-0.40090887898086675	-0.22531732802972912	1.9886941806242069	-0.6067875679625774	-0.22000063524330904	1.905423998230097	-0.6286693127792911	-0.22044627759007088	1.8324895801644565	-0.6425572377722962
85	2.8333333333333335	-0.2565672414567771	1.8302079334128616	-0.5136170633335698	-0.27332625934391624	1.8293576441102297	-0.44643794584098223	-0.24607690018723224	1.7173037171630696	-0.4052565097475197													-0.2404107519534314	1.829958240596019	-0.5701275143383099	-0.2233392499016656	1.7155138990527528	-0.4712341201600585	-0.23374462180958266	1.624813836111612	-0.4690228441007768	-0.23835198179638853	1.587645000703577	-0.5101649786184993	-0.23807523367393768	1.5418572427586876	-0.5902069086245111				-0.24927793581382487	1.9866943590954709	-0.5220012847886367	-0.25936945136900263	2.059223929151544	-0.5707028726283366	-0.27352089643686434	1.985248532999945	-0.4304415225284982	-0.2825857453854546	1.899393482154942	-0.39933128696901954	-0.29377530025265963	1.8248947586338058	-0.40140793525622837	-0.226289116935505	1.98663468784122	-0.60963349565483	-0.21781310119924868	1.9071132951888776	-0.6310162441889122	-0.22006751895855664	1.8354730080646076	-0.643064326930094
86	2.8666666666666667	-0.2564840770236684	1.8236124907265894	-0.5129467524011886	-0.2724247267513303	1.822999881393871	-0.4509703287736574	-0.24607690018723224	1.7173037171630696	-0.4052565097475197													-0.24024060308927273	1.8254588285108124	-0.5698433133294599	-0.2233392499016656	1.7155138990527528	-0.4712341201600585	-0.23374462180958266	1.624813836111612	-0.4690228441007768	-0.23835198179638853	1.587645000703577	-0.5101649786184993	-0.23807523367393768	1.5418572427586876	-0.5902069086245111				-0.25031103824516016	1.985737112969812	-0.5252021514825447	-0.25926494675874806	2.0581727121309776	-0.5701995373259731	-0.2736074313908239	1.9840073744336981	-0.4305483708661891	-0.28384216353188285	1.9008638241543476	-0.40286339105173813	-0.2939381350329076	1.8243249772487797	-0.40117316856173163	-0.22514538646215362	1.986922076309508	-0.6149028481540671	-0.218803231753495	1.906545799412852	-0.6338781356553953	-0.22095125366240392	1.8345688940760043	-0.6460746052536758
